<svg width="206" height="69" viewBox="0 0 206 69" fill="none" xmlns="http://www.w3.org/2000/svg">
<path d="M82.5007 22.2279C89.765 14.9478 101.548 34.415 101.548 34.415C101.548 34.415 112.301 11.8589 124.516 21.1247C136.73 30.3906 111.278 53.0645 101.576 68.2627C101.576 68.2627 65.044 39.7218 82.5007 22.2279Z" fill="#FF748B"/>
<path d="M173.026 24.3461C165.846 34.6116 198.091 54.4524 198.091 54.4524C198.091 54.4524 211.922 18.9177 197.279 16.675C185.727 14.9033 189.39 32.2468 189.39 32.2468C189.39 32.2468 180.276 13.9813 173.022 24.3451" fill="#FF748B"/>
<path d="M33.3821 24.6039C40.3923 34.9861 7.82563 54.294 7.82563 54.294C7.82563 54.294 -5.41934 18.5367 9.25825 16.5351C20.8379 14.9536 16.8909 32.2345 16.8909 32.2345C16.8909 32.2345 26.3041 14.1214 33.3859 24.603" fill="#FF748B"/>
</svg>
