<svg version="1.1" id="Layer_1" xmlns="http://www.w3.org/2000/svg" xmlns:xlink="http://www.w3.org/1999/xlink" x="0px" y="0px"
	 width="100%" viewBox="0 0 512 512" enable-background="new 0 0 512 512" xml:space="preserve">
<path fill="#FFFFFF" opacity="1.000000" stroke="none" 
	d="
M325.000000,513.000000 
	C216.692978,513.000000 108.885948,513.000000 1.039461,513.000000 
	C1.039461,342.401276 1.039461,171.802551 1.039461,1.101915 
	C171.557037,1.101915 342.114136,1.101915 512.835632,1.101915 
	C512.835632,171.666534 512.835632,342.333252 512.835632,513.000000 
	C450.469208,513.000000 387.984589,513.000000 325.000000,513.000000 
M153.032242,304.626190 
	C153.338028,304.773254 153.643814,304.920319 154.336243,305.612305 
	C162.924927,311.017700 171.259903,316.886627 180.145126,321.750275 
	C224.314468,345.928070 272.312164,355.507843 322.032166,357.668671 
	C356.037689,359.146515 389.882111,356.770538 423.433350,350.871033 
	C432.002716,349.364227 440.508270,347.494354 449.724792,345.655273 
	C448.500641,343.791992 447.979584,342.791290 447.270111,341.949341 
	C429.459015,320.813110 411.567108,299.744324 393.870819,278.512543 
	C391.407593,275.557159 389.028839,275.377869 385.664551,276.158112 
	C365.525085,280.829010 345.057404,283.869171 324.432251,283.672333 
	C306.198425,283.498352 287.861603,282.235291 269.787048,279.826416 
	C236.515747,275.392120 205.240616,264.270782 175.639572,248.478287 
	C174.586472,247.916443 173.802811,246.849533 173.256607,245.393692 
	C174.377625,242.807526 175.388931,240.167099 176.636612,237.643539 
	C189.327988,211.974274 191.519913,185.294434 183.908401,157.847977 
	C181.035309,147.487823 177.055313,137.479935 169.698578,128.455322 
	C146.162262,101.718887 112.803703,104.790443 91.541451,128.562805 
	C81.782967,143.652237 76.205696,160.245911 75.163467,178.094849 
	C73.626015,204.424576 80.973480,228.288940 96.939217,249.363647 
	C101.224045,255.019592 105.822701,260.437805 109.861633,266.554779 
	C107.102936,271.686035 104.354683,276.822968 101.583717,281.947601 
	C89.787399,303.763794 78.030815,325.601746 66.132339,347.362091 
	C64.399139,350.531799 64.280029,352.725159 66.891869,355.680237 
	C75.267853,365.157013 83.237122,374.992493 91.403801,384.655334 
	C97.167084,391.474487 102.996117,398.238068 109.247917,405.555664 
	C123.054749,370.908081 136.572021,336.987122 150.571808,303.113464 
	C150.881378,303.221741 151.199982,303.268402 151.856873,303.717438 
	C152.200607,303.857971 152.544342,303.998474 152.954132,303.989594 
	C152.954132,303.989594 152.867142,304.128754 153.032242,304.626190 
M362.969177,210.398697 
	C362.689850,207.254562 362.464661,204.104523 362.121582,200.967361 
	C360.827515,189.134766 355.928162,179.388351 344.522339,174.620285 
	C332.424194,169.562805 320.291351,170.363464 309.597290,178.335999 
	C299.009369,186.229431 296.208221,197.730728 295.743347,210.464874 
	C294.916443,233.115173 310.943268,248.004379 330.646301,248.175949 
	C342.646362,248.280426 353.109039,245.223129 360.916901,235.052032 
	C357.702515,231.463272 354.735565,228.150742 351.754791,224.822815 
	C342.476227,234.235672 331.769348,234.109909 324.674225,230.693710 
	C319.197296,228.056656 315.896423,222.278824 316.486908,216.289978 
	C331.822327,216.289978 347.217010,216.289978 362.953339,216.289978 
	C362.953339,214.283249 362.953339,212.801834 362.969177,210.398697 
M279.822388,156.895737 
	C283.243805,156.625809 286.665192,156.355881 290.548645,156.049515 
	C290.548645,151.683960 290.548645,146.935806 290.548645,141.826294 
	C281.873932,139.786469 273.234222,139.819016 265.117767,144.367371 
	C253.899918,150.653702 253.664459,161.644653 253.932358,173.041382 
	C250.058624,173.041382 246.652145,173.041382 243.348450,173.041382 
	C243.348450,177.905487 243.348450,182.289474 243.348450,187.076981 
	C246.987137,187.076981 250.247162,187.076981 254.148331,187.076981 
	C254.148331,207.166977 254.148331,226.853790 254.148331,246.490051 
	C260.871399,246.490051 266.935944,246.490051 273.416656,246.490051 
	C273.416656,244.535019 273.417877,242.897980 273.416504,241.260956 
	C273.402832,224.774170 273.526154,208.285324 273.277832,191.802078 
	C273.215973,187.697311 274.565277,186.523911 278.413757,186.889267 
	C281.485779,187.180893 284.607574,186.948120 287.680908,186.948120 
	C287.680908,181.876450 287.680908,177.494217 287.680908,172.665070 
	C282.735413,172.665070 278.168518,172.665070 273.333527,172.665070 
	C273.564087,166.502731 272.041534,160.271591 279.822388,156.895737 
M230.730209,205.500107 
	C230.730209,194.742233 230.730209,183.984344 230.730209,173.247711 
	C223.817123,173.247711 217.577042,173.247711 211.257935,173.247711 
	C211.257935,197.790405 211.257935,222.016159 211.257935,246.527924 
	C217.724152,246.527924 223.947983,246.527924 230.730164,246.527924 
	C230.730164,233.030151 230.730164,219.765137 230.730209,205.500107 
M214.328156,145.571564 
	C209.517914,149.553131 208.482849,155.056198 211.709732,159.492783 
	C214.686050,163.584839 222.168793,164.735016 227.133087,161.863449 
	C231.463898,159.358337 233.034378,153.910812 230.764999,149.265549 
	C228.362762,144.348312 222.283295,142.757599 214.328156,145.571564 
z"/>
<path fill="#FA5A74" opacity="1.000000" stroke="none" 
	d="
M151.527603,303.253510 
	C151.199982,303.268402 150.881378,303.221741 150.027649,302.927399 
	C143.992508,298.000031 138.315933,293.454651 133.054337,288.471130 
	C125.306747,281.133026 117.855026,273.482574 110.277275,265.965149 
	C105.822701,260.437805 101.224045,255.019592 96.939217,249.363647 
	C80.973480,228.288940 73.626015,204.424576 75.163467,178.094849 
	C76.205696,160.245911 81.782967,143.652237 91.835922,128.798492 
	C93.447227,137.046860 94.764061,145.059509 96.034561,153.485077 
	C96.270294,155.680206 96.345268,157.525497 96.865723,159.235168 
	C103.971092,182.576233 117.216728,201.985458 135.060303,218.789963 
	C142.618774,225.067017 149.910706,231.283508 157.622482,236.926193 
	C162.382111,240.408829 167.781448,243.017151 172.893585,246.018005 
	C173.802811,246.849533 174.586472,247.916443 175.639572,248.478287 
	C205.240616,264.270782 236.515747,275.392120 269.787048,279.826416 
	C287.861603,282.235291 306.198425,283.498352 324.432251,283.672333 
	C345.057404,283.869171 365.525085,280.829010 385.664551,276.158112 
	C389.028839,275.377869 391.407593,275.557159 393.870819,278.512543 
	C411.567108,299.744324 429.459015,320.813110 447.270111,341.949341 
	C447.979584,342.791290 448.500641,343.791992 449.724792,345.655273 
	C440.508270,347.494354 432.002716,349.364227 423.433350,350.871033 
	C389.882111,356.770538 356.037689,359.146515 322.032166,357.668671 
	C272.312164,355.507843 224.314468,345.928070 180.145126,321.750275 
	C171.259903,316.886627 162.924927,311.017700 154.050140,305.097534 
	C153.465057,304.431458 153.166107,304.280090 152.867142,304.128754 
	C152.867142,304.128754 152.954132,303.989594 152.804077,303.783508 
	C152.278534,303.469452 151.903076,303.361481 151.527603,303.253510 
z"/>
<path fill="#FC768C" opacity="1.000000" stroke="none" 
	d="
M110.069458,266.259949 
	C117.855026,273.482574 125.306747,281.133026 133.054337,288.471130 
	C138.315933,293.454651 143.992508,298.000031 149.786407,302.903748 
	C136.572021,336.987122 123.054749,370.908081 109.247917,405.555664 
	C102.996117,398.238068 97.167084,391.474487 91.403801,384.655334 
	C83.237122,374.992493 75.267853,365.157013 66.891869,355.680237 
	C64.280029,352.725159 64.399139,350.531799 66.132339,347.362091 
	C78.030815,325.601746 89.787399,303.763794 101.583717,281.947601 
	C104.354683,276.822968 107.102936,271.686035 110.069458,266.259949 
z"/>
<path fill="#27203F" opacity="1.000000" stroke="none" 
	d="
M362.961243,210.859558 
	C362.953339,212.801834 362.953339,214.283249 362.953339,216.289978 
	C347.217010,216.289978 331.822327,216.289978 316.486908,216.289978 
	C315.896423,222.278824 319.197296,228.056656 324.674225,230.693710 
	C331.769348,234.109909 342.476227,234.235672 351.754791,224.822815 
	C354.735565,228.150742 357.702515,231.463272 360.916901,235.052032 
	C353.109039,245.223129 342.646362,248.280426 330.646301,248.175949 
	C310.943268,248.004379 294.916443,233.115173 295.743347,210.464874 
	C296.208221,197.730728 299.009369,186.229431 309.597290,178.335999 
	C320.291351,170.363464 332.424194,169.562805 344.522339,174.620285 
	C355.928162,179.388351 360.827515,189.134766 362.121582,200.967361 
	C362.464661,204.104523 362.689850,207.254562 362.961243,210.859558 
M338.280334,202.980377 
	C340.052887,202.980377 341.825470,202.980377 343.631104,202.980377 
	C342.892853,191.540756 337.908752,186.413269 328.892731,187.256027 
	C321.120422,187.982529 315.611908,194.809692 316.469147,202.969620 
	C323.402161,202.969620 330.367920,202.969620 338.280334,202.980377 
z"/>
<path fill="#FC768C" opacity="1.000000" stroke="none" 
	d="
M173.075104,245.705841 
	C167.781448,243.017151 162.382111,240.408829 157.622482,236.926193 
	C149.910706,231.283508 142.618774,225.067017 135.342285,218.556427 
	C143.733109,203.659348 152.384232,189.531143 159.927322,174.834259 
	C163.403290,168.061676 164.711044,160.176285 167.167847,152.455597 
	C168.202118,144.441025 169.070450,136.766312 169.938797,129.091614 
	C177.055313,137.479935 181.035309,147.487823 183.908401,157.847977 
	C191.519913,185.294434 189.327988,211.974274 176.636612,237.643539 
	C175.388931,240.167099 174.377625,242.807526 173.075104,245.705841 
z"/>
<path fill="#251F3E" opacity="1.000000" stroke="none" 
	d="
M279.432861,156.997864 
	C272.041534,160.271591 273.564087,166.502731 273.333527,172.665070 
	C278.168518,172.665070 282.735413,172.665070 287.680908,172.665070 
	C287.680908,177.494217 287.680908,181.876450 287.680908,186.948120 
	C284.607574,186.948120 281.485779,187.180893 278.413757,186.889267 
	C274.565277,186.523911 273.215973,187.697311 273.277832,191.802078 
	C273.526154,208.285324 273.402832,224.774170 273.416504,241.260956 
	C273.417877,242.897980 273.416656,244.535019 273.416656,246.490051 
	C266.935944,246.490051 260.871399,246.490051 254.148331,246.490051 
	C254.148331,226.853790 254.148331,207.166977 254.148331,187.076981 
	C250.247162,187.076981 246.987137,187.076981 243.348450,187.076981 
	C243.348450,182.289474 243.348450,177.905487 243.348450,173.041382 
	C246.652145,173.041382 250.058624,173.041382 253.932358,173.041382 
	C253.664459,161.644653 253.899918,150.653702 265.117767,144.367371 
	C273.234222,139.819016 281.873932,139.786469 290.548645,141.826294 
	C290.548645,146.935806 290.548645,151.683960 290.548645,156.049515 
	C286.665192,156.355881 283.243805,156.625809 279.432861,156.997864 
z"/>
<path fill="#F31137" opacity="1.000000" stroke="none" 
	d="
M169.818695,128.773468 
	C169.070450,136.766312 168.202118,144.441025 166.883453,152.289459 
	C157.554153,145.799988 147.524261,142.436844 136.486572,141.600449 
	C121.568047,140.469986 108.459396,145.412231 96.080902,153.072174 
	C94.764061,145.059509 93.447227,137.046860 92.097214,128.593384 
	C112.803703,104.790443 146.162262,101.718887 169.818695,128.773468 
z"/>
<path fill="#292241" opacity="1.000000" stroke="none" 
	d="
M230.730194,206.000122 
	C230.730164,219.765137 230.730164,233.030151 230.730164,246.527924 
	C223.947983,246.527924 217.724152,246.527924 211.257935,246.527924 
	C211.257935,222.016159 211.257935,197.790405 211.257935,173.247711 
	C217.577042,173.247711 223.817123,173.247711 230.730209,173.247711 
	C230.730209,183.984344 230.730209,194.742233 230.730194,206.000122 
z"/>
<path fill="#292340" opacity="1.000000" stroke="none" 
	d="
M214.661728,145.355469 
	C222.283295,142.757599 228.362762,144.348312 230.764999,149.265549 
	C233.034378,153.910812 231.463898,159.358337 227.133087,161.863449 
	C222.168793,164.735016 214.686050,163.584839 211.709732,159.492783 
	C208.482849,155.056198 209.517914,149.553131 214.661728,145.355469 
z"/>
<path fill="#FC768C" opacity="1.000000" stroke="none" 
	d="
M151.692230,303.485474 
	C151.903076,303.361481 152.278534,303.469452 152.771057,303.858215 
	C152.544342,303.998474 152.200607,303.857971 151.692230,303.485474 
z"/>
<path fill="#FC768C" opacity="1.000000" stroke="none" 
	d="
M152.949692,304.377472 
	C153.166107,304.280090 153.465057,304.431458 153.856812,304.825073 
	C153.643814,304.920319 153.338028,304.773254 152.949692,304.377472 
z"/>
<path fill="#FEFCFD" opacity="1.000000" stroke="none" 
	d="
M96.034561,153.485077 
	C108.459396,145.412231 121.568047,140.469986 136.486572,141.600449 
	C147.524261,142.436844 157.554153,145.799988 166.717499,152.629333 
	C164.711044,160.176285 163.403290,168.061676 159.927322,174.834259 
	C152.384232,189.531143 143.733109,203.659348 135.253036,218.253586 
	C117.216728,201.985458 103.971092,182.576233 96.865723,159.235168 
	C96.345268,157.525497 96.270294,155.680206 96.034561,153.485077 
z"/>
<path fill="#F8F7F9" opacity="1.000000" stroke="none" 
	d="
M337.807007,202.975006 
	C330.367920,202.969620 323.402161,202.969620 316.469147,202.969620 
	C315.611908,194.809692 321.120422,187.982529 328.892731,187.256027 
	C337.908752,186.413269 342.892853,191.540756 343.631104,202.980377 
	C341.825470,202.980377 340.052887,202.980377 337.807007,202.975006 
z"/>
</svg>