<svg width="202" height="68" viewBox="0 0 202 68" fill="none" xmlns="http://www.w3.org/2000/svg">
<path d="M86.6231 21.281C93.8874 14.001 104.548 32.0593 104.548 32.0593C104.548 32.0593 114.3 9.5032 126.515 18.7691C138.73 28.0349 114.278 50.7088 104.576 65.9071C104.576 65.9071 69.1664 38.775 86.6231 21.281Z" fill="#FF748B"/>
<path d="M199.015 35.1709C205.419 45.9377 171.799 63.3478 171.799 63.3478C171.799 63.3478 160.625 26.8903 175.393 25.733C187.044 24.8176 182.114 41.8439 182.114 41.8439C182.114 41.8439 192.549 24.3 199.019 35.1702" fill="#FF748B"/>
<path d="M3.03008 35.4468C-3.19281 46.3192 30.7131 63.1647 30.7131 63.1647C30.7131 63.1647 41.2763 26.5255 26.4908 25.6153C14.8259 24.8948 20.0406 41.8363 20.0406 41.8363C20.0406 41.8363 9.31312 24.4693 3.02623 35.4462" fill="#FF748B"/>
</svg>
